<?xml version="1.0" encoding="UTF-8" standalone="no"?>
<svg xmlns="http://www.w3.org/2000/svg" width="603" height="182" viewBox="0 0 603 182">
  <path d="M374.408 142.395c-34.346 25.285-84.168 38.76-127.043 38.76-60.114 0-114.237-22.21-155.14-59.11-3.208-2.91-.341-6.867 3.517-4.612 44.077 25.677 98.536 41.11 154.806 41.11 37.969 0 79.67-7.853 118.117-24.1 5.792-2.492 10.654 3.8 5.743 7.952z" fill="#FF9900"/>
  <path d="M388.455 126.218c-4.39-5.612-29.008-2.655-40.091-1.34-3.358.4-3.878-2.526-.844-4.645 19.639-13.8 51.827-9.814 55.56-5.193 3.734 4.646-1.002 36.921-19.4 52.345-2.825 2.379-5.513 1.109-4.257-2.025 4.132-10.3 13.382-33.529 9.032-39.142z" fill="#FF9900"/>
  <path d="M348.113 24.561v-13.33c0-2.026 1.537-3.36 3.38-3.36h59.753c1.915 0 3.452 1.36 3.452 3.36v11.42c-.024 1.9-1.625 4.39-4.48 8.34l-30.96 44.22c11.495-.28 23.638 1.45 34.07 7.3 2.353 1.31 2.985 3.236 3.16 5.135v14.23c0 1.93-2.127 4.17-4.355 3.01-18.195-9.52-42.302-10.55-62.36.12-2.058 1.09-4.208-1.13-4.208-3.06v-13.5c0-2.15.024-5.84 2.18-9.12l35.872-51.47h-31.23c-1.915 0-3.452-1.36-3.452-3.36l.17-.93zm-209.01 85.837h-18.195c-1.731-.12-3.11-1.43-3.233-3.1V10.761c0-1.884 1.573-3.36 3.525-3.36h16.97c1.78.083 3.207 1.45 3.33 3.16v12.55h.341c4.427-11.82 12.743-17.32 23.97-17.32 11.398 0 18.537 5.5 23.636 17.32 4.403-11.82 14.4-17.32 25.113-17.32 7.63 0 15.968 3.15 21.065 10.22 5.757 7.84 4.574 19.23 4.574 29.2l-.024 58.46c0 1.88-1.573 3.36-3.525 3.36h-18.17c-1.828-.12-3.282-1.6-3.282-3.36V50.121c0-3.97.341-13.86-.512-17.62-.866-6.34-3.452-8.12-6.807-8.12-2.802 0-5.733 1.88-6.928 4.86-1.195 2.98-.512 7.97-.512 10.88v66.92c0 1.88-1.573 3.36-3.525 3.36H178.46c-1.828-.12-3.282-1.6-3.282-3.36l-.024-66.92c0-10.5 1.719-25.93-11.3-25.93-13.163 0-12.65 15.02-12.65 25.93v66.92c0 1.88-1.573 3.36-3.525 3.36h-8.576zm322.025 1.36c-.866.78-2.108.83-3.086.3-4.33-3.6-5.11-5.26-7.484-8.7-7.143 7.3-12.23 9.45-21.5 9.45-10.995 0-19.547-6.77-19.547-20.33 0-10.59 5.757-17.81 13.97-21.33 7.117-3.09 17.063-3.64 24.658-4.49v-1.7c0-3.11.244-6.8-1.597-9.49-1.597-2.41-4.672-3.42-7.362-3.42-5.002 0-9.455 2.56-10.532 7.9-.219 1.17-1.084 2.32-2.255 2.38l-17.6-1.9c-1.487-.34-3.135-1.54-2.718-3.83 4.06-21.33 23.365-27.77 40.672-27.77 8.844 0 20.401 2.36 27.396 9.06 8.844 8.28 8 19.33 8 31.37v28.44c0 8.53 3.55 12.29 6.88 16.9 1.17 1.65 1.426 3.6-.049 4.82-3.696 3.09-10.264 8.81-13.87 12.03l.024-.7zm-18.243-44.07c0 7 .17 12.84-3.38 19.06-2.865 5.07-7.41 8.19-12.474 8.19-6.905 0-10.97-5.26-10.97-13.06 0-15.33 13.774-18.14 26.824-18.14v3.95zm49.288 44.07c-1.219.78-2.498.83-3.55.3-4.355-3.6-5.135-5.26-7.508-8.7-7.143 7.3-12.206 9.45-21.48 9.45-10.995 0-19.547-6.77-19.547-20.33 0-10.59 5.733-17.81 13.945-21.33 7.143-3.09 17.088-3.64 24.683-4.49v-1.7c0-3.11.244-6.8-1.597-9.49-1.597-2.41-4.647-3.42-7.362-3.42-5.002 0-9.455 2.56-10.532 7.9-.219 1.17-1.084 2.32-2.255 2.38l-17.6-1.9c-1.487-.34-3.11-1.54-2.693-3.83 4.06-21.33 23.34-27.77 40.647-27.77 8.844 0 20.425 2.36 27.42 9.06 8.82 8.28 7.975 19.33 7.975 31.37v28.44c0 8.53 3.55 12.29 6.88 16.9 1.195 1.65 1.45 3.6-.024 4.82-3.696 3.09-10.264 8.81-13.87 12.03l-.024-.7zm-18.219-44.07c0 7 .17 12.84-3.38 19.06-2.865 5.07-7.386 8.19-12.45 8.19-6.905 0-10.995-5.26-10.995-13.06 0-15.33 13.774-18.14 26.824-18.14v3.95h.001zM181.635 111.04c-13.359 0-20.62-11.47-20.62-26.1 0-14.53 7.46-25.83 20.962-25.83 13.31 0 20.547 11.67 20.547 26.1 0 14.63-7.41 25.83-20.889 25.83zm.073-9.54c6.76 0 6.418-9.22 6.418-14.97 0-5.87-.073-18.04-6.344-18.04-6.344 0-6.637 10.12-6.637 16.3 0 5.77-.317 16.7 6.563 16.7z" fill="#221F1F"/>
</svg>
